<?xml version="1.0" encoding="UTF-8" standalone="no"?>
<!-- Created with Inkscape (http://www.inkscape.org/) -->

<svg
   version="1.1"
   id="svg1"
   width="1024"
   height="1024"
   viewBox="0 0 1024 1024"
   xmlns="http://www.w3.org/2000/svg"
   xmlns:svg="http://www.w3.org/2000/svg">
  <defs
     id="defs1" />
  <g
     id="g5">
    <path
       style="display:inline;fill:#f2d1af;fill-opacity:1;stroke-width:0.567368;paint-order:stroke fill markers"
       d="m 197.05413,84.304547 c 0,0 -34.57505,2.461446 -51.4036,-3.999849 C 128.82198,73.843404 90.575258,51.075017 79.254223,37.537063 67.9332,23.999109 56.306184,0 56.306184,0 c 0,0 -7.343365,21.845341 -2.141819,40.613875 5.201569,18.768534 17.440512,38.460094 24.171939,43.690672 6.731427,5.230579 6.119477,3.07681 6.119477,3.07681 0,0 -11.321035,-0.769197 -27.843627,6.307462 -16.522579,7.076661 -32.89217,23.845271 -40.388525,40.460021 -9.6955581,21.48903 -15.91063139,46.15212 -16.21661203,70.15122 -0.30596932,23.99911 9.48518473,56.92096 9.48518473,56.92096 0,0 2.1418193,-9.5381 7.0373963,-23.69143 4.895577,-14.15331 21.571148,-35.22946 21.571148,-35.22946 0,0 -2.697857,3.53549 -7.802325,21.07615 -8.173293,28.08621 -6.731427,56.7671 -3.059738,78.15093 3.56447,20.75941 17.4405,47.69051 17.4405,47.69051 0,0 1.070909,-12.15338 4.130646,-22.92221 4.202888,-14.79213 10.556105,-23.22991 10.556105,-23.22991 v 407.67708 c -45.891179,43.40215 -68.0115164,130.33905 -30.733538,191.557 0,0 1.37834,8.33649 1.514492,-13.48891 0.200981,-32.21747 10.168742,-24.94996 10.168742,-24.94996 -10.90826,-29.48033 -8.109474,45.38646 3.348789,80.71926 6.306507,19.4468 18.900111,40.98411 35.540953,56.46913 15.047832,14.0026 34.576448,22.9441 34.576448,22.9441 0,0 -2.29105,1.0916 -5.71223,-24.54205 -2.25955,-16.92993 6.88891,-48.85254 6.88891,-48.85254 0,0 -3.57998,23.17062 7.75807,41.14397 15.64418,24.79962 55.64063,26.40622 55.64063,26.40622 -0.71452,0.1026 -2.14678,-15.6076 2.78628,-25.9055 10.04938,-20.97837 25.08987,-27.97177 25.08987,-27.97177 L 512,964.27165 V 84.304559 Z"
       id="path2" />
    <path
       style="display:inline;fill:#f2d1af;fill-opacity:1;stroke-width:0.567368;paint-order:stroke fill markers"
       d="m 826.94587,84.304547 c 0,0 34.57505,2.461446 51.4036,-3.999849 16.82855,-6.461294 55.07527,-29.229676 66.39631,-42.767629 C 956.0668,23.999115 967.69381,5.6894925e-6 967.69381,5.6894925e-6 c 0,0 7.34336,21.8453403105075 2.14181,40.6138833105075 -5.20155,18.76852 -17.4405,38.46008 -24.17192,43.690658 -6.73143,5.230579 -6.11948,3.07681 -6.11948,3.07681 0,0 11.32103,-0.769197 27.84362,6.307462 16.52258,7.076661 32.89216,23.845271 40.38856,40.460021 9.6955,21.48903 15.9106,46.15212 16.2166,70.15122 0.306,23.99911 -9.4852,56.92096 -9.4852,56.92096 0,0 -2.1418,-9.5381 -7.0374,-23.69143 -4.8956,-14.15331 -21.57115,-35.22946 -21.57115,-35.22946 0,0 2.69785,3.53549 7.80232,21.07615 8.17333,28.08621 6.73143,56.7671 3.05974,78.15093 -3.56447,20.75941 -17.4405,47.69051 -17.4405,47.69051 0,0 -1.07091,-12.15338 -4.13065,-22.92221 -4.20289,-14.79213 -10.55609,-23.22991 -10.55609,-23.22991 v 407.67708 c 45.89113,43.40215 68.01143,130.33905 30.73353,191.557 0,0 -1.37835,8.33649 -1.5145,-13.48891 -0.20098,-32.21747 -10.16874,-24.94996 -10.16874,-24.94996 10.90827,-29.48033 8.10948,45.38646 -3.34878,80.71926 -6.3065,19.4468 -18.90011,40.98411 -35.54095,56.46913 -15.04783,14.0026 -34.57645,22.9441 -34.57645,22.9441 0,0 2.29106,1.0916 5.71223,-24.54205 2.25955,-16.92993 -6.88891,-48.85254 -6.88891,-48.85254 0,0 3.57998,23.17062 -7.75806,41.14397 -15.64419,24.79952 -55.64064,26.40612 -55.64064,26.40612 0.71452,0.1025 2.14678,-15.6075 -2.78628,-25.9054 -10.04938,-20.97837 -25.08987,-27.97177 -25.08987,-27.97177 L 512,964.27165 V 84.304559 Z"
       id="path3" />
    <rect
       style="display:inline;fill:#f2d1af;fill-opacity:1;stroke-width:14836;paint-order:stroke fill markers"
       id="rect3"
       width="34.545731"
       height="879.03644"
       x="490.30951"
       y="84.304558" />
  </g>
</svg>
