<?xml version="1.0" encoding="UTF-8" standalone="no"?>
<!-- Created with Inkscape (http://www.inkscape.org/) -->

<svg
   version="1.1"
   id="svg1"
   width="1024"
   height="1024"
   viewBox="0 0 1024 1024"
   xmlns="http://www.w3.org/2000/svg"
   xmlns:svg="http://www.w3.org/2000/svg">
  <defs
     id="defs1" />
  <g
     id="g5">
    <path
       style="display:inline;fill:#f2d1af;fill-opacity:1;stroke-width:0.567368;paint-order:stroke fill markers"
       d="m 197.05413,84.304547 c 0,0 -34.57505,2.461446 -51.4036,-3.999849 C 128.82198,73.843404 90.575258,51.075017 79.254223,37.537063 67.9332,23.999109 56.306184,0 56.306184,0 c 0,0 -7.343365,21.845341 -2.141819,40.613875 5.201569,18.768534 17.440512,38.460094 24.171939,43.690672 6.731427,5.230579 6.119477,3.07681 6.119477,3.07681 0,0 -11.321035,-0.769197 -27.843627,6.307462 -16.522579,7.076661 -32.89217,23.845271 -40.388525,40.460021 -9.6955581,21.48903 -15.91063139,46.15212 -16.21661203,70.15122 -0.30596932,23.99911 9.48518473,56.92096 9.48518473,56.92096 0,0 2.1418193,-9.5381 7.0373963,-23.69143 4.895577,-14.15331 21.571148,-35.22946 21.571148,-35.22946 -8.777361,19.10739 -14.754528,31.08417 -10.862063,51.08477 3.56447,20.75941 17.4405,47.69051 17.4405,47.69051 0,0 1.070909,-12.15338 4.130646,-22.92221 4.202888,-14.79213 10.556105,-23.22991 10.556105,-23.22991 V 829.14675 L 40.31563,884.67911 c -5.617987,35.38302 -8.109474,24.56816 3.348789,59.90096 6.306507,19.4468 18.900111,40.98411 35.540953,56.46913 15.047832,14.0026 34.576448,22.9441 34.576448,22.9441 0,0 -2.29105,1.0916 -5.71223,-24.54205 -2.25955,-16.92993 6.88891,-48.85254 6.88891,-48.85254 0,0 -3.57998,23.17062 7.75807,41.14397 15.64418,24.79962 55.64063,26.40622 55.64063,26.40622 -0.71452,0.1026 -2.14678,-15.6076 2.78628,-25.9055 10.04938,-20.97837 25.08987,-27.97177 25.08987,-27.97177 L 512,964.27165 V 84.304559 Z"
       id="path2" />
    <path
       style="display:none;fill:#f2d1af;fill-opacity:1;stroke-width:0.567368;paint-order:stroke fill markers"
       d="m 826.94587,84.304547 c 0,0 34.57505,2.461446 51.4036,-3.999849 16.82855,-6.461294 55.07527,-29.229676 66.39631,-42.767629 C 956.0668,23.999115 967.69381,5.6894925e-6 967.69381,5.6894925e-6 c 0,0 7.34336,21.8453403105075 2.14181,40.6138833105075 -5.20155,18.76852 -17.4405,38.46008 -24.17192,43.690658 -6.73143,5.230579 -6.11948,3.07681 -6.11948,3.07681 0,0 11.32103,-0.769197 27.84362,6.307462 16.52258,7.076661 32.89216,23.845271 40.38856,40.460021 9.6955,21.48903 15.9106,46.15212 16.2166,70.15122 0.306,23.99911 -9.4852,56.92096 -9.4852,56.92096 0,0 -2.1418,-9.5381 -7.0374,-23.69143 -4.8956,-14.15331 -21.57115,-35.22946 -21.57115,-35.22946 8.77736,19.10744 14.75455,31.08414 10.86206,51.08477 -3.56447,20.75941 -17.4405,47.69051 -17.4405,47.69051 0,0 -1.07091,-12.15338 -4.13065,-22.92221 -4.20289,-14.79213 -10.55609,-23.22991 -10.55609,-23.22991 v 527.38229 c 69.77913,105.68816 26.52425,79.56641 19.05029,81.55523 10.90827,-29.48033 8.10948,45.38646 -3.34878,80.71926 -6.3065,19.4468 -18.90011,40.98411 -35.54095,56.46913 -15.04783,14.0026 -34.57645,22.9441 -34.57645,22.9441 0,0 2.29106,1.0916 5.71223,-24.54205 2.25955,-16.92993 -6.88891,-48.85254 -6.88891,-48.85254 0,0 3.57998,23.17062 -7.75806,41.14397 -15.64419,24.79952 -55.64064,26.40612 -55.64064,26.40612 0.71452,0.1025 2.14678,-15.6075 -2.78628,-25.9054 -10.04938,-20.97837 -25.08987,-27.97177 -25.08987,-27.97177 L 512,964.27165 V 84.304559 Z"
       id="path3" />
    <rect
       style="display:inline;fill:#f2d1af;fill-opacity:1;stroke-width:14836;paint-order:stroke fill markers"
       id="rect3"
       width="34.545731"
       height="879.03644"
       x="490.30951"
       y="84.304558" />
    <path
       style="display:inline;fill:#f2d1af;fill-opacity:1;stroke-width:0.567368;paint-order:stroke fill markers"
       d="m 826.94586,84.304547 c 0,0 34.57505,2.461446 51.4036,-3.999849 16.82855,-6.461294 55.07527,-29.229681 66.39631,-42.767635 C 956.06679,23.999109 967.6938,-4.0000001e-7 967.6938,-4.0000001e-7 c 0,0 7.3434,21.84534140000001 2.1418,40.61387540000001 -5.20154,18.768534 -17.44048,38.460094 -24.17191,43.690672 -6.73143,5.230579 -6.11948,3.07681 -6.11948,3.07681 0,0 11.32104,-0.769197 27.84359,6.307462 16.5226,7.076661 32.8922,23.845271 40.3886,40.460021 9.6955,21.48903 15.9106,46.15212 16.2166,70.15122 0.3059,23.99911 -9.4852,56.92096 -9.4852,56.92096 0,0 -2.1418,-9.5381 -7.0374,-23.69143 -4.8956,-14.15331 -21.5711,-35.22946 -21.5711,-35.22946 8.7773,19.10739 14.7545,31.08417 10.862,51.08477 -3.5645,20.75941 -17.4405,47.69051 -17.4405,47.69051 0,0 -1.0709,-12.15338 -4.1306,-22.92221 -4.2029,-14.79213 -10.55614,-23.22991 -10.55614,-23.22991 v 574.22346 l 19.05034,55.53236 c 5.618,35.38302 8.1094,24.56816 -3.3488,59.90096 -6.3065,19.4468 -18.90014,40.98411 -35.54098,56.46913 -15.04783,14.0026 -34.57645,22.9441 -34.57645,22.9441 0,0 2.29105,1.0916 5.71223,-24.54204 2.25955,-16.92994 -6.88891,-48.85255 -6.88891,-48.85255 0,0 3.57998,23.17062 -7.75807,41.14397 -15.64418,24.79962 -55.64063,26.40622 -55.64063,26.40622 0.71452,0.1026 2.14678,-15.6076 -2.78628,-25.9055 -10.04938,-20.97837 -25.08987,-27.97177 -25.08987,-27.97177 L 512,964.27165 V 84.304559 Z"
       id="path1" />
  </g>
</svg>
