<?xml version="1.0" encoding="UTF-8" standalone="no"?>
<!-- Created with Inkscape (http://www.inkscape.org/) -->

<svg
   version="1.1"
   id="svg1"
   width="1365.3333"
   height="705.33331"
   viewBox="0 0 1365.3333 705.33331"
   xmlns="http://www.w3.org/2000/svg"
   xmlns:svg="http://www.w3.org/2000/svg">
  <defs
     id="defs1" />
  <g
     id="layer2"
     style="display:inline">
    <path
       style="display:inline;fill:#a16a34;fill-opacity:1;stroke-width:0.5;paint-order:stroke fill markers"
       d="m 1077.3038,47.126308 c 38.2168,2.18082 95.3564,2.36633 95.3564,2.36633 0,0 56.0264,1.11311 68.2706,0 12.2442,-1.11311 25.6015,-5.38002 25.6015,-5.38002 0,0 -4.4524,13.17179 -21.5201,21.5201 -17.0676,8.34832 -38.0312,11.50213 -53.2437,12.61524 -15.2125,1.1131 -23.0042,0.92759 -23.0042,0.92759 0,0 3.8959,1.29862 13.3573,7.79176 9.4614,6.49313 36.7326,29.497382 49.1623,42.669172 12.4297,13.17179 31.5381,34.87741 37.4747,42.85469 5.9365,7.97728 14.0993,15.76904 21.5201,28.38428 7.4207,12.61523 12.9862,23.18976 13.3573,30.23945 0.371,7.04969 -0.3711,6.67866 -0.3711,6.67866 0,0 -6.4931,-5.56555 -12.0586,-10.2035 -5.5656,-4.63795 -32.0563,-21.72234 -38.2168,-24.4884 -4.1318,-1.85518 -2.4117,0.18552 0.3711,4.26692 2.7827,4.0814 23.5608,51.57404 28.3842,66.60101 4.8235,15.02697 14.4704,71.98104 15.7691,90.34734 1.2986,18.36629 0.9276,92.57355 -4.638,116.31987 -5.5655,23.74632 -13.9138,45.82298 -22.2622,60.2934 -8.3483,14.47041 -29.3118,29.6829 -29.3118,29.6829 0,0 -0.3711,-0.55655 1.6696,-6.1221 2.0407,-5.56554 5.1945,-17.25319 7.0497,-25.04495 1.8552,-7.79176 1.2987,-19.4794 1.2987,-19.4794 0,0 -1.2987,14.84145 -3.7104,23.00425 -2.4117,8.1628 -5.009,14.84145 -16.6966,25.6015 -11.6877,10.76005 -25.9726,20.96355 -37.6602,26.34358 -11.6877,5.38002 -31.0706,13.67732 -38.9588,19.10836 -8.176,5.62921 -15.0818,11.53899 -17.8098,20.77804 -2.6394,8.9389 1.7879,20.09004 -0.3167,18.87237 -2.2279,-1.28903 -4.2537,-2.17574 -7.475,-8.48336 -3.0153,-5.90412 -5.3513,-8.84761 -5.0541,-18.92285 -0.058,-7.69526 1.7112,-14.46712 7.2803,-19.66492 -21.0338,15.46888 -51.4828,28.414 -95.5419,41.41124 -24.4784,7.22104 -66.97201,12.42972 -92.20247,14.47042 -25.23047,2.0407 -81.8135,1.85518 -111.86744,0.55655 -30.05394,-1.29862 -57.51063,-2.78277 -74.39278,-2.78277 -16.88215,0 -26.36092,-0.56286 -31.16705,1.85518 -2.15368,1.08355 -1.35296,-2.28055 1.85519,-5.00899 3.2226,-2.74073 8.90487,-4.63795 8.90487,-4.63795 0,0 0.49897,-0.7596 -5.56555,-0.37104 -5.93658,0.38036 -18.55181,3.15381 -28.94083,7.79177 -10.38901,4.63795 -17.62422,10.76005 -17.62422,10.76005 0,0 -1.70979,-0.74208 -1.70979,-3.33933 V 626.68028 44.524354 Z"
       id="path2" />
    <path
       style="display:inline;fill:#a16a34;fill-opacity:1;stroke-width:0.5;paint-order:stroke fill markers"
       d="m 288.02946,47.126308 c -38.2168,2.18082 -95.3564,2.36633 -95.3564,2.36633 0,0 -56.0264,1.11311 -68.2706,0 -12.2442,-1.11311 -25.601503,-5.38002 -25.601503,-5.38002 0,0 4.452403,13.17179 21.520103,21.520099 17.0676,8.34832 38.0312,11.50213 53.2437,12.61524 15.2125,1.1131 23.0042,0.92759 23.0042,0.92759 0,0 -3.8959,1.29862 -13.3573,7.79176 -9.4614,6.49313 -36.7326,29.497383 -49.1623,42.669173 -12.4297,13.17179 -31.5381,34.87741 -37.474703,42.85469 -5.9365,7.97728 -14.0993,15.76904 -21.5201,28.38428 -7.4207,12.61523 -12.986203,23.18976 -13.357303,30.23945 -0.371,7.04969 0.3711,6.67866 0.3711,6.67866 0,0 6.493103,-5.56555 12.058603,-10.2035 5.5656,-4.63795 32.056303,-21.72234 38.216803,-24.4884 4.1318,-1.85518 2.4117,0.18552 -0.3711,4.26692 -2.7827,4.0814 -23.560803,51.57404 -28.384203,66.60101 -4.8235,15.02697 -14.4704,71.98104 -15.7691,90.34734 -1.2986,18.36629 -0.9276,92.57355 4.638,116.31987 5.5655,23.74632 13.9138,45.82298 22.2622,60.2934 8.348303,14.47041 29.311803,29.6829 29.311803,29.6829 0,0 0.3711,-0.55655 -1.6696,-6.1221 -2.0407,-5.56554 -5.1945,-17.25319 -7.0497,-25.04495 -1.8552,-7.79176 -1.2987,-19.4794 -1.2987,-19.4794 0,0 1.2987,14.84145 3.7104,23.00425 2.4117,8.1628 5.009,14.84145 16.6966,25.6015 11.6877,10.76005 25.9726,20.96355 37.6602,26.34358 11.6877,5.38002 31.0706,13.67732 38.9588,19.10836 8.176,5.62921 15.0818,11.53899 17.8098,20.77804 2.6394,8.9389 -1.7879,20.09004 0.3167,18.87237 2.2279,-1.28903 4.2537,-2.17574 7.475,-8.48336 3.0153,-5.90412 5.3513,-8.84761 5.0541,-18.92285 0.058,-7.69526 -1.7112,-14.46712 -7.2803,-19.66492 21.0338,15.46888 51.4828,28.414 95.5419,41.41124 24.4784,7.22104 66.97201,12.42972 92.20247,14.47042 25.23047,2.0407 81.8135,1.85518 111.86744,0.55655 30.05394,-1.29862 57.51063,-2.78277 74.39278,-2.78277 16.88215,0 26.36092,-0.56286 31.16705,1.85518 2.15368,1.08355 1.35296,-2.28055 -1.85519,-5.00899 -3.2226,-2.74073 -8.90487,-4.63795 -8.90487,-4.63795 0,0 -0.49897,-0.7596 5.56555,-0.37104 5.93658,0.38036 18.55181,3.15381 28.94083,7.79177 10.38901,4.63795 17.62422,10.76005 17.62422,10.76005 0,0 1.70979,-0.74208 1.70979,-3.33933 V 626.68028 44.524354 Z"
       id="path3" />
    <rect
       style="display:inline;fill:#a16a34;fill-opacity:1;stroke-width:26.0095;paint-order:stroke fill markers"
       id="rect3"
       width="2.4757919"
       height="622.82745"
       x="681.42859"
       y="44.524357" />
  </g>
</svg>
